<svg width="60" height="60" viewBox="0 0 60 60" fill="none" xmlns="http://www.w3.org/2000/svg">
<path d="M20 20L20 17.5C20 11.9772 24.4772 7.5 30 7.5V7.5C35.5228 7.5 40 11.9772 40 17.5L40 20" stroke="#EC4899" stroke-width="2" stroke-linecap="round"/>
<path fill-rule="evenodd" clip-rule="evenodd" d="M8.08579 18.0858C7.5 18.6716 7.5 19.6144 7.5 21.5V47C7.5 50.7712 7.5 52.6569 8.67157 53.8284C9.84315 55 11.7288 55 15.5 55H44.5C48.2712 55 50.1569 55 51.3284 53.8284C52.5 52.6569 52.5 50.7712 52.5 47V21.5C52.5 19.6144 52.5 18.6716 51.9142 18.0858C51.3284 17.5 50.3856 17.5 48.5 17.5H11.5C9.61438 17.5 8.67157 17.5 8.08579 18.0858ZM23.5 30C23.5 29.4477 23.0523 29 22.5 29C21.9477 29 21.5 29.4477 21.5 30V35C21.5 35.5523 21.9477 36 22.5 36C23.0523 36 23.5 35.5523 23.5 35V30ZM38.5 30C38.5 29.4477 38.0523 29 37.5 29C36.9477 29 36.5 29.4477 36.5 30V35C36.5 35.5523 36.9477 36 37.5 36C38.0523 36 38.5 35.5523 38.5 35V30Z" fill="white"/>
<path d="M8.67157 53.8284L9.37868 53.1213H9.37868L8.67157 53.8284ZM51.3284 53.8284L50.6213 53.1213H50.6213L51.3284 53.8284ZM51.9142 18.0858L52.6213 17.3787L52.6213 17.3787L51.9142 18.0858ZM8.5 21.5C8.5 20.5289 8.50212 19.9012 8.56431 19.4387C8.62262 19.005 8.71677 18.869 8.79289 18.7929L7.37868 17.3787C6.86902 17.8883 6.67027 18.5167 6.58214 19.1722C6.49788 19.799 6.5 20.5855 6.5 21.5H8.5ZM8.5 47V21.5H6.5V47H8.5ZM9.37868 53.1213C9.00966 52.7523 8.76907 52.2342 8.63753 51.2558C8.50212 50.2487 8.5 48.9139 8.5 47H6.5C6.5 48.8573 6.49788 50.351 6.65536 51.5223C6.81672 52.7225 7.16191 53.733 7.96447 54.5355L9.37868 53.1213ZM15.5 54C13.5861 54 12.2513 53.9979 11.2442 53.8625C10.2658 53.7309 9.7477 53.4903 9.37868 53.1213L7.96447 54.5355C8.76702 55.3381 9.77752 55.6833 10.9777 55.8446C12.149 56.0021 13.6427 56 15.5 56V54ZM44.5 54H15.5V56H44.5V54ZM50.6213 53.1213C50.2523 53.4903 49.7342 53.7309 48.7558 53.8625C47.7487 53.9979 46.4139 54 44.5 54V56C46.3573 56 47.851 56.0021 49.0223 55.8446C50.2225 55.6833 51.233 55.3381 52.0355 54.5355L50.6213 53.1213ZM51.5 47C51.5 48.9139 51.4979 50.2487 51.3625 51.2558C51.2309 52.2342 50.9903 52.7523 50.6213 53.1213L52.0355 54.5355C52.8381 53.733 53.1833 52.7225 53.3446 51.5223C53.5021 50.351 53.5 48.8573 53.5 47H51.5ZM51.5 21.5V47H53.5V21.5H51.5ZM51.2071 18.7929C51.2832 18.869 51.3774 19.005 51.4357 19.4387C51.4979 19.9012 51.5 20.5289 51.5 21.5H53.5C53.5 20.5855 53.5021 19.799 53.4179 19.1722C53.3297 18.5167 53.131 17.8883 52.6213 17.3787L51.2071 18.7929ZM48.5 18.5C49.4711 18.5 50.0988 18.5021 50.5613 18.5643C50.995 18.6226 51.131 18.7168 51.2071 18.7929L52.6213 17.3787C52.1117 16.869 51.4833 16.6703 50.8278 16.5821C50.201 16.4979 49.4145 16.5 48.5 16.5V18.5ZM11.5 18.5H48.5V16.5H11.5V18.5ZM8.79289 18.7929C8.86902 18.7168 9.00496 18.6226 9.4387 18.5643C9.90121 18.5021 10.5289 18.5 11.5 18.5V16.5C10.5855 16.5 9.79896 16.4979 9.17221 16.5821C8.51669 16.6703 7.88834 16.869 7.37868 17.3787L8.79289 18.7929ZM22.5 30H24.5C24.5 28.8954 23.6046 28 22.5 28V30ZM22.5 30V28C21.3954 28 20.5 28.8954 20.5 30H22.5ZM22.5 35V30H20.5V35H22.5ZM22.5 35H20.5C20.5 36.1046 21.3954 37 22.5 37V35ZM22.5 35V37C23.6046 37 24.5 36.1046 24.5 35H22.5ZM22.5 30V35H24.5V30H22.5ZM37.5 30H39.5C39.5 28.8954 38.6046 28 37.5 28V30ZM37.5 30V28C36.3954 28 35.5 28.8954 35.5 30H37.5ZM37.5 35V30H35.5V35H37.5ZM37.5 35H35.5C35.5 36.1046 36.3954 37 37.5 37V35ZM37.5 35V37C38.6046 37 39.5 36.1046 39.5 35H37.5ZM37.5 30V35H39.5V30H37.5Z" fill="#EC4899"/>
</svg>
