<svg width="60" height="60" viewBox="0 0 60 60" fill="none" xmlns="http://www.w3.org/2000/svg">
<path d="M20 20L20 17.5C20 11.9772 24.4772 7.5 30 7.5V7.5C35.5228 7.5 40 11.9772 40 17.5L40 20" stroke="white" stroke-width="2" stroke-linecap="round"/>
<path fill-rule="evenodd" clip-rule="evenodd" d="M8.08579 18.0858C7.5 18.6716 7.5 19.6144 7.5 21.5V47C7.5 50.7712 7.5 52.6569 8.67157 53.8284C9.84315 55 11.7288 55 15.5 55H44.5C48.2712 55 50.1569 55 51.3284 53.8284C52.5 52.6569 52.5 50.7712 52.5 47V21.5C52.5 19.6144 52.5 18.6716 51.9142 18.0858C51.3284 17.5 50.3856 17.5 48.5 17.5H11.5C9.61438 17.5 8.67157 17.5 8.08579 18.0858ZM23.5 30C23.5 29.4477 23.0523 29 22.5 29C21.9477 29 21.5 29.4477 21.5 30V35C21.5 35.5523 21.9477 36 22.5 36C23.0523 36 23.5 35.5523 23.5 35V30ZM38.5 30C38.5 29.4477 38.0523 29 37.5 29C36.9477 29 36.5 29.4477 36.5 30V35C36.5 35.5523 36.9477 36 37.5 36C38.0523 36 38.5 35.5523 38.5 35V30Z" fill="white"/>
</svg>
