<svg width="65" height="64" viewBox="0 0 65 64" fill="none" xmlns="http://www.w3.org/2000/svg">
<path d="M11.6833 44.2499C8.70549 39.226 7.6639 33.2878 8.75404 27.5503C9.84418 21.8128 12.9911 16.6705 17.604 13.0888C22.2169 9.50704 27.9785 7.73222 33.8072 8.09751C39.636 8.46279 45.1309 10.9431 49.2605 15.0727C53.3902 19.2023 55.8704 24.6973 56.2357 30.526C56.601 36.3547 54.8262 42.1164 51.2445 46.7292C47.6627 51.3421 42.5204 54.489 36.7829 55.5792C31.0454 56.6693 25.1072 55.6277 20.0833 52.6499L11.7833 54.9999C11.4432 55.0994 11.0827 55.1056 10.7394 55.0177C10.3962 54.9299 10.0829 54.7514 9.83232 54.5009C9.58179 54.2504 9.40327 53.9371 9.31547 53.5938C9.22766 53.2506 9.23381 52.89 9.33327 52.5499L11.6833 44.2499Z" fill="white" stroke="#EC4899" stroke-width="4" stroke-linecap="round" stroke-linejoin="round"/>
<path d="M38.3583 46.0001C35.7267 46.0066 33.1198 45.4932 30.6872 44.4892C28.2547 43.4852 26.0446 42.0104 24.1837 40.1496C22.3229 38.2888 20.8482 36.0786 19.8441 33.6461C18.8401 31.2136 18.3267 28.6066 18.3333 25.9751C18.3399 24.1229 19.0803 22.3488 20.3923 21.0415C21.7044 19.7341 23.4811 19 25.3333 19.0001C25.6389 18.9976 25.9395 19.0776 26.2034 19.2316C26.4674 19.3856 26.685 19.6078 26.8333 19.8751L29.7583 24.9751C29.9322 25.2851 30.0215 25.6354 30.0171 25.9909C30.0127 26.3464 29.9148 26.6944 29.7333 27.0001L27.3833 30.9251C28.587 33.6028 30.7305 35.7464 33.4083 36.9501L37.3333 34.6001C37.6389 34.4185 37.987 34.3206 38.3424 34.3162C38.6979 34.3118 39.0482 34.4011 39.3583 34.5751L44.4583 37.5001C44.7255 37.6483 44.9478 37.8659 45.1017 38.1299C45.2557 38.3939 45.3357 38.6945 45.3333 39.0001C45.3267 40.8502 44.5906 42.6231 43.2846 43.9338C41.9787 45.2444 40.2084 45.9869 38.3583 46.0001Z" fill="white" stroke="#EC4899" stroke-width="4" stroke-linecap="round" stroke-linejoin="round"/>
</svg>
