<svg width="48" height="48" viewBox="0 0 48 48" fill="none" xmlns="http://www.w3.org/2000/svg">
<path d="M32.25 6.75H15.75C10.7794 6.75 6.75 10.7794 6.75 15.75V32.25C6.75 37.2206 10.7794 41.25 15.75 41.25H32.25C37.2206 41.25 41.25 37.2206 41.25 32.25V15.75C41.25 10.7794 37.2206 6.75 32.25 6.75Z" fill="white" stroke="#EC4899" stroke-width="3" stroke-linecap="round" stroke-linejoin="round"/>
<path d="M24 31.5C28.1421 31.5 31.5 28.1421 31.5 24C31.5 19.8579 28.1421 16.5 24 16.5C19.8579 16.5 16.5 19.8579 16.5 24C16.5 28.1421 19.8579 31.5 24 31.5Z" fill="white" stroke="#EC4899" stroke-width="3" stroke-miterlimit="10"/>
<path d="M33.75 16.5C34.9926 16.5 36 15.4926 36 14.25C36 13.0074 34.9926 12 33.75 12C32.5074 12 31.5 13.0074 31.5 14.25C31.5 15.4926 32.5074 16.5 33.75 16.5Z" fill="#EC4899"/>
</svg>
