<svg width="48" height="48" viewBox="0 0 48 48" fill="none" xmlns="http://www.w3.org/2000/svg">
<path d="M8.51246 33.1875C6.27912 29.4195 5.49793 24.9659 6.31553 20.6627C7.13314 16.3596 9.49332 12.5029 12.953 9.81657C16.4127 7.13028 20.7339 5.79917 25.1054 6.07313C29.477 6.3471 33.5982 8.2073 36.6954 11.3045C39.7926 14.4017 41.6528 18.523 41.9268 22.8945C42.2008 27.266 40.8696 31.5873 38.1833 35.0469C35.497 38.5066 31.6403 40.8668 27.3372 41.6844C23.034 42.502 18.5804 41.7208 14.8125 39.4875L8.58746 41.25C8.33241 41.3246 8.062 41.3292 7.80456 41.2633C7.54713 41.1975 7.31214 41.0636 7.12425 40.8757C6.93635 40.6878 6.80246 40.4528 6.7366 40.1954C6.67075 39.9379 6.67536 39.6675 6.74996 39.4125L8.51246 33.1875Z" fill="white" stroke="#EC4899" stroke-width="3" stroke-linecap="round" stroke-linejoin="round"/>
<path d="M28.5187 34.5C26.545 34.505 24.5898 34.1199 22.7654 33.3669C20.941 32.6139 19.2834 31.5078 17.8878 30.1122C16.4922 28.7166 15.3861 27.059 14.6331 25.2346C13.8801 23.4102 13.495 21.455 13.5 19.4813C13.5049 18.0922 14.0602 16.7616 15.0443 15.7811C16.0283 14.8006 17.3608 14.25 18.75 14.25C18.9791 14.2482 19.2046 14.3082 19.4026 14.4237C19.6005 14.5392 19.7637 14.7059 19.875 14.9063L22.0687 18.7313C22.1992 18.9638 22.2661 19.2266 22.2628 19.4932C22.2595 19.7598 22.1861 20.0208 22.05 20.25L20.2875 23.1938C21.1902 25.2021 22.7979 26.8098 24.8062 27.7125L27.75 25.95C27.9792 25.8139 28.2402 25.7405 28.5068 25.7372C28.7734 25.7339 29.0362 25.8008 29.2687 25.9313L33.0937 28.125C33.2941 28.2363 33.4608 28.3994 33.5763 28.5974C33.6918 28.7954 33.7518 29.0208 33.75 29.25C33.7451 30.6377 33.1929 31.9674 32.2135 32.9503C31.234 33.9333 29.9063 34.4902 28.5187 34.5Z" fill="white" stroke="#EC4899" stroke-width="3" stroke-linecap="round" stroke-linejoin="round"/>
</svg>
