<svg width="64" height="64" viewBox="0 0 64 64" fill="none" xmlns="http://www.w3.org/2000/svg">
<path d="M42 26.5C46.0801 29.4295 50.9772 31.0036 56 31V21C52.287 21 48.726 19.525 46.1005 16.8995C43.475 14.274 42 10.713 42 7H32V39C31.9999 40.2527 31.6637 41.4824 31.0264 42.5609C30.3891 43.6393 29.474 44.527 28.3767 45.1313C27.2794 45.7355 26.0401 46.0343 24.7879 45.9963C23.5358 45.9584 22.3168 45.5851 21.2582 44.9155C20.1995 44.2459 19.3399 43.3044 18.769 42.1894C18.1982 41.0743 17.937 39.8265 18.0128 38.5761C18.0886 37.3257 18.4985 36.1186 19.1999 35.0806C19.9012 34.0426 20.8682 33.2119 22 32.675V22.275C18.8164 22.8458 15.8618 24.3128 13.4828 26.504C11.1038 28.6952 9.39932 31.5196 8.56931 34.6456C7.73931 37.7716 7.81827 41.0695 8.79693 44.1522C9.77559 47.2349 11.6133 49.9744 14.0944 52.0492C16.5755 54.1241 19.597 55.4481 22.8043 55.8658C26.0115 56.2836 29.2713 55.7777 32.2011 54.4077C35.1309 53.0376 37.6091 50.8602 39.3448 48.1311C41.0804 45.402 42.0016 42.2343 42 39V26.5Z" fill="white" stroke="#EC4899" stroke-width="4" stroke-linecap="round" stroke-linejoin="round"/>
</svg>
