<svg width="48" height="48" viewBox="0 0 48 48" fill="none" xmlns="http://www.w3.org/2000/svg">
<path d="M31.5 19.875C34.5601 22.0721 38.2329 23.2527 42 23.25V15.75C39.2152 15.75 36.5445 14.6438 34.5754 12.6746C32.6062 10.7055 31.5 8.03477 31.5 5.25H24V29.25C23.9999 30.1895 23.7478 31.1118 23.2698 31.9206C22.7918 32.7295 22.1055 33.3952 21.2825 33.8484C20.4596 34.3017 19.53 34.5257 18.591 34.4973C17.6519 34.4688 16.7376 34.1889 15.9436 33.6866C15.1496 33.1844 14.5049 32.4783 14.0768 31.642C13.6486 30.8057 13.4528 29.8699 13.5096 28.9321C13.5665 27.9943 13.8739 27.0889 14.3999 26.3104C14.9259 25.532 15.6511 24.9089 16.5 24.5062V16.7062C14.1123 17.1343 11.8963 18.2346 10.1121 19.878C8.32788 21.5214 7.04949 23.6397 6.42698 25.9842C5.80448 28.3287 5.8637 30.8021 6.5977 33.1141C7.33169 35.4261 8.71 37.4808 10.5708 39.0369C12.4317 40.593 14.6978 41.586 17.1032 41.8994C19.5086 42.2127 21.9535 41.8333 24.1508 40.8058C26.3482 39.7782 28.2068 38.1452 29.5086 36.0983C30.8103 34.0515 31.5012 31.6757 31.5 29.25V19.875Z" fill="white" stroke="#EC4899" stroke-width="3" stroke-linecap="round" stroke-linejoin="round"/>
</svg>
